<svg width="20" height="20" viewBox="0 0 20 20" fill="none" xmlns="http://www.w3.org/2000/svg">
<path d="M19.31 7.12056L17.9433 6.78722C17.7003 6.72593 17.4725 6.61529 17.2741 6.46218C17.0757 6.30906 16.9109 6.11676 16.79 5.89723C16.73 5.78389 16.6633 5.67389 16.5967 5.56389C16.461 5.34774 16.3719 5.10564 16.3352 4.85308C16.2985 4.60053 16.3149 4.34308 16.3833 4.09723L16.7733 2.74057C16.8284 2.54518 16.817 2.33706 16.741 2.14884C16.665 1.96062 16.5286 1.80295 16.3533 1.70057L13.6467 0.120575C13.4711 0.019878 13.2669 -0.0193896 13.0665 0.0089852C12.866 0.03736 12.6808 0.131757 12.54 0.277242L11.56 1.27724C11.3857 1.45901 11.1752 1.60219 10.9421 1.6975C10.709 1.79282 10.4584 1.83815 10.2067 1.83057H9.79336C9.54162 1.83815 9.2911 1.79282 9.05798 1.6975C8.82487 1.60219 8.61434 1.45901 8.44003 1.27724L7.46003 0.277242C7.31927 0.131757 7.13402 0.03736 6.93359 0.0089852C6.73315 -0.0193896 6.52898 0.019878 6.35337 0.120575L3.64671 1.6839C3.47143 1.78629 3.3351 1.94395 3.25909 2.13217C3.18307 2.32039 3.17169 2.52851 3.22671 2.7239L3.61671 4.08056C3.68519 4.32642 3.70159 4.58386 3.66486 4.83642C3.62812 5.08897 3.53906 5.33107 3.40338 5.54723C3.33671 5.65723 3.27338 5.76723 3.21004 5.88056C3.08984 6.10133 2.92537 6.29492 2.72692 6.44921C2.52847 6.6035 2.3003 6.71517 2.05671 6.77722L0.690049 7.11056C0.491546 7.1594 0.315373 7.27389 0.190121 7.43544C0.0648686 7.597 -0.00211144 7.79614 5.07534e-05 8.00056V11.1272C0.000139658 11.3299 0.0681522 11.5267 0.193226 11.6863C0.3183 11.8458 0.49322 11.9588 0.690049 12.0072L2.05671 12.3405C2.3003 12.4026 2.52847 12.5143 2.72692 12.6686C2.92537 12.8228 3.08984 13.0164 3.21004 13.2372C3.27338 13.3505 3.33671 13.4605 3.40338 13.5705C3.53906 13.7867 3.62812 14.0288 3.66486 14.2814C3.70159 14.5339 3.68519 14.7914 3.61671 15.0372L3.22671 16.3939C3.17169 16.5893 3.18307 16.7974 3.25909 16.9856C3.3351 17.1738 3.47143 17.3315 3.64671 17.4339L6.35337 18.9972C6.52898 19.0979 6.73315 19.1372 6.93359 19.1088C7.13402 19.0804 7.31927 18.986 7.46003 18.8405L8.44003 17.8405C8.61434 17.6588 8.82487 17.5156 9.05798 17.4203C9.2911 17.325 9.54162 17.2796 9.79336 17.2872H10.2067C10.4584 17.2796 10.709 17.325 10.9421 17.4203C11.1752 17.5156 11.3857 17.6588 11.56 17.8405L12.54 18.8405C12.6808 18.986 12.866 19.0804 13.0665 19.1088C13.2669 19.1372 13.4711 19.0979 13.6467 18.9972L16.3533 17.4339C16.5286 17.3315 16.665 17.1738 16.741 16.9856C16.817 16.7974 16.8284 16.5893 16.7733 16.3939L16.3833 15.0372C16.3149 14.7914 16.2985 14.5339 16.3352 14.2814C16.3719 14.0288 16.461 13.7867 16.5967 13.5705C16.6633 13.4605 16.73 13.3505 16.79 13.2372C16.9102 13.0164 17.0747 12.8228 17.2731 12.6686C17.4716 12.5143 17.6997 12.4026 17.9433 12.3405L19.31 12.0072C19.5068 11.9588 19.6818 11.8458 19.8068 11.6863C19.9319 11.5267 19.9999 11.3299 20 11.1272V8.00056C19.9999 7.79785 19.9319 7.60103 19.8068 7.44151C19.6818 7.282 19.5068 7.169 19.31 7.12056ZM10 14.1105C9.10078 14.1105 8.22173 13.8439 7.47404 13.3443C6.72635 12.8447 6.14359 12.1346 5.79946 11.3038C5.45534 10.473 5.3653 9.55884 5.54073 8.67688C5.71617 7.79491 6.14919 6.98478 6.78506 6.34891C7.42092 5.71305 8.23105 5.28003 9.11302 5.10459C9.99498 4.92916 10.9092 5.0192 11.74 5.36332C12.5707 5.70745 13.2808 6.2902 13.7804 7.0379C14.28 7.78559 14.5467 8.66464 14.5467 9.56388C14.5467 10.7697 14.0677 11.9262 13.215 12.7789C12.3623 13.6315 11.2059 14.1105 10 14.1105Z" fill="#1D8E6A"/>
</svg>
