<svg width="16" height="16" viewBox="0 0 16 16" fill="none" xmlns="http://www.w3.org/2000/svg">
<path d="M15.5535 2.60248L10.1541 8L15.5535 13.3975C15.8394 13.6834 16 14.0712 16 14.4755C16 14.8798 15.8394 15.2676 15.5535 15.5535C15.2676 15.8394 14.8798 16 14.4755 16C14.0712 16 13.6834 15.8394 13.3975 15.5535L8 10.1541L2.60248 15.5535C2.31658 15.8394 1.92882 16 1.5245 16C1.12017 16 0.732413 15.8394 0.446514 15.5535C0.160616 15.2676 9.60342e-08 14.8798 9.08165e-08 14.4755C8.55988e-08 14.0712 0.160616 13.6834 0.446514 13.3975L5.84594 8L0.446514 2.60248C0.160616 2.31658 0 1.92882 0 1.5245C0 1.12017 0.160616 0.732413 0.446514 0.446514C0.732413 0.160616 1.12017 0 1.5245 0C1.92882 0 2.31658 0.160616 2.60248 0.446514L8 5.84594L13.3975 0.446514C13.6834 0.160616 14.0712 8.55988e-08 14.4755 9.08165e-08C14.8798 9.60342e-08 15.2676 0.160616 15.5535 0.446514C15.8394 0.732413 16 1.12017 16 1.5245C16 1.92882 15.8394 2.31658 15.5535 2.60248Z" fill="#1D8E6A"/>
</svg>
