<svg width="20" height="20" viewBox="0 0 20 20" fill="none" xmlns="http://www.w3.org/2000/svg">
<path d="M10 0C8.02219 0 6.08879 0.58649 4.4443 1.6853C2.79981 2.78412 1.51809 4.3459 0.761209 6.17317C0.00433284 8.00043 -0.193701 10.0111 0.192152 11.9509C0.578004 13.8907 1.53041 15.6725 2.92894 17.0711C4.32746 18.4696 6.10929 19.422 8.0491 19.8079C9.98891 20.1937 11.9996 19.9957 13.8268 19.2388C15.6541 18.4819 17.2159 17.2002 18.3147 15.5557C19.4135 13.9112 20 11.9778 20 10C20 8.68678 19.7413 7.38642 19.2388 6.17317C18.7363 4.95991 17.9997 3.85752 17.0711 2.92893C16.1425 2.00035 15.0401 1.26375 13.8268 0.761205C12.6136 0.258658 11.3132 0 10 0ZM9.5 3C9.79668 3 10.0867 3.08797 10.3334 3.2528C10.58 3.41762 10.7723 3.65189 10.8858 3.92597C10.9994 4.20006 11.0291 4.50166 10.9712 4.79264C10.9133 5.08361 10.7704 5.35088 10.5607 5.56066C10.3509 5.77044 10.0836 5.9133 9.79264 5.97118C9.50167 6.02906 9.20007 5.99935 8.92598 5.88582C8.65189 5.77229 8.41762 5.58003 8.2528 5.33336C8.08798 5.08668 8 4.79667 8 4.5C8 4.10218 8.15804 3.72064 8.43934 3.43934C8.72065 3.15804 9.10218 3 9.5 3ZM12 16H11C10.4696 16 9.96086 15.7893 9.58579 15.4142C9.21072 15.0391 9 14.5304 9 14V10C8.73479 10 8.48043 9.89464 8.2929 9.70711C8.10536 9.51957 8 9.26522 8 9C8 8.73478 8.10536 8.48043 8.2929 8.29289C8.48043 8.10536 8.73479 8 9 8H10C10.2652 8 10.5196 8.10536 10.7071 8.29289C10.8946 8.48043 11 8.73478 11 9V14H12C12.2652 14 12.5196 14.1054 12.7071 14.2929C12.8946 14.4804 13 14.7348 13 15C13 15.2652 12.8946 15.5196 12.7071 15.7071C12.5196 15.8946 12.2652 16 12 16Z" fill="#1D8E6A"/>
</svg>
