<svg width="50" height="50" viewBox="0 0 50 50" fill="none" xmlns="http://www.w3.org/2000/svg">
<circle cx="25" cy="25" r="25" fill="#CFF4E0"/>
<path d="M33.5705 19.0006C33.2105 19.0104 32.8684 19.1597 32.6164 19.417L22.3728 29.6606L17.238 25.688C17.0939 25.5764 16.9292 25.4942 16.7534 25.4463C16.5776 25.3983 16.394 25.3854 16.2132 25.4083C16.0323 25.4313 15.8578 25.4896 15.6995 25.58C15.5413 25.6704 15.4024 25.7911 15.2907 25.9352C15.1791 26.0793 15.097 26.244 15.049 26.4198C15.001 26.5957 14.9881 26.7792 15.0111 26.96C15.034 27.1409 15.0924 27.3154 15.1828 27.4737C15.2732 27.6319 15.3939 27.7708 15.5379 27.8825L21.6442 32.601C21.9108 32.8079 22.2437 32.9106 22.5805 32.8898C22.9174 32.8691 23.2352 32.7263 23.4743 32.4882L34.5767 21.3859C34.778 21.1912 34.9158 20.9402 34.9719 20.6659C35.028 20.3915 34.9997 20.1065 34.8909 19.8485C34.782 19.5905 34.5977 19.3714 34.362 19.2201C34.1264 19.0687 33.8504 18.9922 33.5705 19.0006Z" fill="#1D8E6A"/>
</svg>
